<svg width="80" height="80" viewBox="0 0 80 80" fill="none" xmlns="http://www.w3.org/2000/svg">
<g clip-path="url(#clip0_438_3)">
<path d="M40.0002 80C34.9022 80 30.7689 75.8667 30.7689 70.7688V9.23078C30.7689 4.13281 34.9022 0 40.0002 0C45.0981 0 49.231 4.13281 49.231 9.23078V70.7688C49.231 75.8669 45.0981 80 40.0002 80Z" fill="#20382B"/>
<path d="M70.7694 49.2307C68.4071 49.2307 66.0443 48.3299 64.243 46.5274L40.0007 22.2858L15.7582 46.5274C12.1538 50.1325 6.30864 50.1325 2.70411 46.5274C-0.901045 42.9222 -0.901045 37.0779 2.70411 33.4726L33.4729 2.70411C37.0772 -0.901045 42.9224 -0.901045 46.5265 2.70411L77.296 33.4729C80.9008 37.078 80.9008 42.9224 77.296 46.5277C75.4933 48.3297 73.131 49.2307 70.7694 49.2307Z" fill="#20382B"/>
</g>
<defs>
<clipPath id="clip0_438_3">
<rect width="80" height="80" fill="white"/>
</clipPath>
</defs>
</svg>
