<svg width="100" height="100" viewBox="0 0 100 100" fill="none" xmlns="http://www.w3.org/2000/svg">
<path d="M89.1797 23.8391L87.4953 24.0813C85.7859 24.3297 84.0672 24.2266 82.3953 23.7781C78.3094 22.6844 74.0453 23.2453 70.3828 25.3594L23.4516 52.4563L9.05156 45.3359C8.58125 45.1031 8.02969 45.1219 7.57813 45.3828L2.16563 48.5078C1.41719 48.9391 1.1625 49.8953 1.59375 50.6422L13.3125 70.9391C13.6531 71.5281 14.3375 71.8281 15.0031 71.6844L45.4016 64.9594C45.5578 64.925 45.7078 64.8656 45.8453 64.7875L49.9047 62.4438L60.8422 81.3875C61.1328 81.8891 61.6563 82.1688 62.1969 82.1688C62.4609 82.1688 62.7297 82.1016 62.9766 81.9594L72.4484 76.4906C73.0313 76.1547 73.3328 75.4828 73.1969 74.8234L68.4688 51.725L93.775 37.1141C95.4297 36.1594 96.6125 34.6156 97.1078 32.7703C97.6016 30.925 97.3484 28.9969 96.3922 27.3422C94.9219 24.7969 92.0938 23.4188 89.1797 23.8391ZM8.41563 48.5078L20.1984 54.3328L10.5484 59.9047L5.07969 50.4328L8.41563 48.5078ZM94.0891 31.9625C93.8109 33.0016 93.1453 33.8703 92.2125 34.4078L65.9312 49.5813C65.3484 49.9172 65.0469 50.5891 65.1828 51.2484L69.9094 74.3484L62.7656 78.4734L51.8281 59.5297C51.6203 59.1719 51.2797 58.9094 50.8797 58.8016C50.7469 58.7656 50.6109 58.7484 50.475 58.7484C50.2031 58.7484 49.9328 58.8188 49.6938 58.9578L44.4891 61.9625L15.4453 68.3859L12.1125 62.6125L24.2906 55.5813L71.9469 28.0672C74.6281 26.5188 77.7109 26.0219 80.7203 26.6094L77.2734 28.5984L78.8359 31.3047L85.6016 27.3984L85.5531 27.3156C86.3484 27.3219 87.1438 27.2875 87.9406 27.1734L89.625 26.9313C91.2609 26.6906 92.8578 27.4688 93.6875 28.9047C94.225 29.8375 94.3687 30.9234 94.0891 31.9625Z" fill="#D9D9D9"/>
<path d="M96.875 93.75H3.125V96.875H96.875V93.75Z" fill="#D9D9D9"/>
<path d="M73.2157 30.9457L70.5091 32.5079L72.0713 35.2145L74.7779 33.6523L73.2157 30.9457Z" fill="#D9D9D9"/>
<path d="M67.8016 34.0711L65.095 35.6333L66.6572 38.3399L69.3638 36.7777L67.8016 34.0711Z" fill="#D9D9D9"/>
<path d="M62.389 37.1962L59.6824 38.7584L61.2446 41.465L63.9512 39.9028L62.389 37.1962Z" fill="#D9D9D9"/>
<path d="M56.976 40.321L54.2695 41.8832L55.8317 44.5897L58.5382 43.0276L56.976 40.321Z" fill="#D9D9D9"/>
<path d="M51.5634 43.4461L48.8569 45.0083L50.4191 47.7149L53.1256 46.1527L51.5634 43.4461Z" fill="#D9D9D9"/>
<path d="M46.1507 46.571L43.4441 48.1332L45.0063 50.8397L47.7128 49.2776L46.1507 46.571Z" fill="#D9D9D9"/>
<path d="M40.7379 49.6957L38.0313 51.2579L39.5935 53.9645L42.3001 52.4023L40.7379 49.6957Z" fill="#D9D9D9"/>
<path d="M35.3253 52.8207L32.6187 54.3829L34.1809 57.0895L36.8875 55.5273L35.3253 52.8207Z" fill="#D9D9D9"/>
<path d="M29.9125 55.9456L27.206 57.5078L28.7682 60.2144L31.4747 58.6522L29.9125 55.9456Z" fill="#D9D9D9"/>
</svg>
