<svg width="243" height="243" viewBox="0 0 243 243" fill="none" xmlns="http://www.w3.org/2000/svg">
<g clip-path="url(#clip0_353_1169)">
<path d="M227.026 49.0586C237 35.7072 242.971 21.8451 243 11.9417C242.987 8.73465 242.344 6.22843 241.12 4.36146C240.992 4.13315 240.639 3.53558 240.017 2.94675C239.398 2.3329 238.842 2.00493 238.722 1.93862C236.764 0.631504 234.246 0.000976562 231.038 0.000976562C221.159 0.017653 207.293 5.98384 193.938 15.9746C183.142 24.0527 172.346 35.4292 157.402 51.1829C154.866 53.8547 152.199 56.6639 149.377 59.6096L120.43 50.9339L120.516 50.8509C121.72 49.6352 122.405 47.9631 122.388 46.3201C122.405 44.5858 121.703 42.9138 120.496 41.7107L115.268 36.4747C114.061 35.2589 112.393 34.5621 110.667 34.5621C108.924 34.5621 107.298 35.2343 106.082 36.4624L98.2614 44.2876L94.1205 43.0511C95.0127 41.9183 95.5062 40.5036 95.4896 39.1096C95.5062 37.3502 94.8257 35.7115 93.602 34.4957L88.3493 29.2431C87.1502 28.04 85.4905 27.3511 83.7482 27.3511C82.0138 27.3511 80.3915 28.0277 79.1884 29.2514L72.0108 36.425L42.5777 27.6084C41.9182 27.4134 41.2209 27.3098 40.4741 27.3098C38.3832 27.3348 36.4455 28.1107 35.0308 29.5131L24.6831 39.8648C23.5086 41.0389 22.8491 42.6279 22.8618 44.1339C22.8245 46.3535 24.0526 48.4031 26.0192 49.4569L87.9141 84.0346C88.2171 84.2046 89.0926 84.8522 89.4162 85.1758L107.062 102.817C90.5569 120.206 75.8527 137.047 64.3936 151.697C63.3231 153.058 62.3106 154.385 61.3148 155.701L13.4313 151.353C13.199 151.324 12.9373 151.303 12.6054 151.303C10.4105 151.348 8.26556 152.216 6.67257 153.755L1.84713 158.576C0.656351 159.742 -0.0158672 161.318 0.000809205 162.841C-0.0365142 165.165 1.36986 167.313 3.48181 168.255L37.1674 184.254C37.4576 184.399 38.2128 184.934 38.4578 185.179L41.2543 187.955C40.3788 190.419 39.9349 192.556 39.9099 194.432C39.9015 196.942 40.7107 199.091 42.2584 200.639L42.3788 200.743L42.4117 200.767C44.0007 202.307 46.0587 203.091 48.6062 203.091C50.4402 203.062 52.5561 202.626 55.029 201.755L57.8668 204.589C58.0868 204.821 58.6136 205.56 58.7506 205.854L74.7159 239.466C75.6911 241.61 77.7943 243 80.0845 243H80.1175C81.7025 243 83.2169 242.365 84.3743 241.204L89.3157 236.246C90.7801 234.702 91.6433 232.574 91.6762 230.33C91.6762 230.056 91.6639 229.844 91.6556 229.728L87.2951 181.67C88.6062 180.682 89.9339 179.666 91.2986 178.604C105.97 167.128 122.815 152.411 140.17 135.931L157.828 153.606C158.114 153.879 158.782 154.755 158.977 155.12L193.489 216.903C194.543 218.899 196.572 220.131 198.821 220.131C200.426 220.131 201.953 219.496 203.123 218.318L213.545 207.904C214.898 206.49 215.657 204.568 215.678 202.469C215.678 201.764 215.578 201.079 215.396 200.436L206.579 170.995L213.752 163.809C214.96 162.609 215.645 160.941 215.645 159.228C215.645 157.506 214.976 155.888 213.761 154.656L208.5 149.399C207.297 148.192 205.633 147.503 203.92 147.503C202.468 147.503 201.049 147.989 199.941 148.864L198.708 144.74L206.537 136.911C207.74 135.703 208.425 134.035 208.425 132.318C208.425 130.588 207.757 128.966 206.537 127.75L201.301 122.513C200.094 121.289 198.418 120.596 196.696 120.596C194.966 120.596 193.289 121.298 192.107 122.505L192.053 122.555L183.381 93.6113C186.377 90.7568 189.219 88.039 191.936 85.4791C207.634 70.5835 218.969 59.8292 227.026 49.0586Z" fill="#D9D9D9"/>
</g>
<defs>
<clipPath id="clip0_353_1169">
<rect width="243" height="243" fill="white"/>
</clipPath>
</defs>
</svg>
