<svg width="100" height="100" viewBox="0 0 100 100" fill="none" xmlns="http://www.w3.org/2000/svg">
<path d="M86.3666 31.8229H72.7291V13.6396H9.09164C4.09157 13.6396 0 17.7354 0 22.7313V72.7312H9.09164C9.09164 80.277 15.1834 86.3604 22.725 86.3604C30.275 86.3604 36.3625 80.2728 36.3625 72.7312H63.6333C63.6333 80.277 69.725 86.3604 77.2708 86.3604C84.8166 86.3604 90.9042 80.2728 90.9042 72.7312H100V50.002L86.3666 31.8229ZM22.725 79.5521C18.9541 79.5521 15.9083 76.5021 15.9083 72.7312C15.9083 68.9561 18.9499 65.9103 22.725 65.9103C26.5001 65.9103 29.5459 68.9519 29.5459 72.7312C29.5459 76.4979 26.4999 79.5521 22.725 79.5521ZM84.0915 38.6396L92.9997 50.002H72.7249V38.6396H84.0915ZM77.275 79.5521C73.4999 79.5521 70.4541 76.5021 70.4541 72.7312C70.4541 68.9561 73.4957 65.9103 77.275 65.9103C81.0459 65.9103 84.0917 68.9519 84.0917 72.7312C84.0915 76.4979 81.0457 79.5521 77.275 79.5521Z" fill="#1E1E1E"/>
</svg>
