<svg width="517" height="243" viewBox="0 0 517 243" fill="none" xmlns="http://www.w3.org/2000/svg">
<path d="M479.769 46.3508C477.642 43.3114 474.146 41.4878 470.499 41.4878H399.833V11.3977C399.833 5.16698 394.666 0 388.435 0H132.366C126.135 0 120.968 5.16698 120.968 11.3977V195.585C120.968 201.816 126.135 206.983 132.366 206.983H164.583C170.51 227.651 189.658 243 212.15 243C234.642 243 253.79 227.803 259.717 206.983H386.004C391.931 227.651 411.079 243 433.57 243C456.062 243 475.21 227.803 481.137 206.983H504.692C510.923 206.983 516.09 201.816 516.09 195.585V101.82C516.09 99.3884 515.33 97.1088 513.962 95.2852L479.769 46.3508ZM493.446 105.163H442.385V64.4353H464.724L493.446 105.163ZM143.764 22.9475H377.038V184.34H260.78C256.373 161.392 236.313 144.068 212.15 144.068C187.987 144.068 167.775 161.392 163.52 184.34H143.764V22.9475ZM212.15 220.204C197.409 220.204 185.403 208.199 185.403 193.458C185.403 178.717 197.409 166.711 212.15 166.711C226.891 166.711 238.897 178.717 238.897 193.458C238.897 208.199 226.891 220.204 212.15 220.204ZM433.722 220.204C418.981 220.204 406.976 208.199 406.976 193.458C406.976 178.717 418.981 166.711 433.722 166.711C448.463 166.711 460.469 178.717 460.469 193.458C460.469 208.199 448.463 220.204 433.722 220.204ZM482.353 184.34C477.946 161.392 457.886 144.068 433.722 144.068C420.653 144.068 408.647 149.235 399.833 157.593V64.4353H419.437V116.561C419.437 122.792 424.604 127.959 430.835 127.959H493.598V184.34H482.353Z" fill="#D9D9D9"/>
<path d="M11.3977 22.9469H92.7017C98.9325 22.9469 104.099 17.7799 104.099 11.5491C104.099 5.31835 98.9325 0.151367 92.7017 0.151367H11.3977C5.16698 0.151367 0 5.31835 0 11.5491C0 17.7799 5.16698 22.9469 11.3977 22.9469Z" fill="#D9D9D9"/>
<path d="M92.7019 41.6406H30.0902C23.8595 41.6406 18.6925 46.8076 18.6925 53.0384C18.6925 59.2691 23.8595 64.4361 30.0902 64.4361H92.7019C98.9326 64.4361 104.1 59.2691 104.1 53.0384C104.1 46.8076 99.0846 41.6406 92.7019 41.6406Z" fill="#D9D9D9"/>
<path d="M92.7017 83.1279H53.1895C46.9587 83.1279 41.7917 88.2949 41.7917 94.5257C41.7917 100.756 46.9587 105.923 53.1895 105.923H92.7017C98.9325 105.923 104.099 100.756 104.099 94.5257C104.099 88.2949 99.0844 83.1279 92.7017 83.1279Z" fill="#D9D9D9"/>
<path d="M92.7017 124.615H79.0244C72.7937 124.615 67.6267 129.782 67.6267 136.013C67.6267 142.244 72.7937 147.411 79.0244 147.411H92.7017C98.9325 147.411 104.099 142.244 104.099 136.013C104.099 129.782 99.0845 124.615 92.7017 124.615Z" fill="#D9D9D9"/>
</svg>
