<svg width="343" height="243" viewBox="0 0 343 243" fill="none" xmlns="http://www.w3.org/2000/svg">
<path d="M111.82 0C105.796 0 100.775 5.02124 100.775 11.0447V66.2805C69.0168 66.2805 37.2588 66.2805 5.50093 66.2805C2.46782 66.2914 0.0118549 68.7479 3.70234e-05 71.781C-0.0110087 74.8311 2.45091 77.3137 5.50093 77.3257H44.1907V88.381H22.09C19.04 88.3699 16.5578 90.8322 16.5459 93.8821C16.5349 96.9491 19.0231 99.438 22.09 99.4263H44.1907V110.471H11.045C7.99394 110.46 5.51148 112.921 5.50093 115.972C5.48988 119.039 7.97798 121.528 11.045 121.516H44.1907V132.529H22.09C19.0231 132.518 16.5339 135.006 16.5459 138.073C16.5569 141.123 19.04 143.585 22.09 143.573H44.1907V154.618H27.6017C24.5506 154.63 22.078 157.112 22.09 160.163C22.101 163.198 24.5665 165.664 27.6017 165.674H44.1907V204.353C44.1907 213.438 51.652 220.91 60.7366 220.91H88.9099C89.7504 224.982 91.4863 228.74 93.9147 231.955H71.7924C68.755 231.96 66.2925 234.419 66.2806 237.456C66.2696 240.51 68.7381 242.994 71.7924 243H115.983C129.269 243 140.429 233.466 143.013 220.91H226.983C227.821 224.982 229.554 228.74 231.977 231.955H160.131C157.097 231.966 154.641 234.423 154.63 237.456C154.619 240.506 157.081 242.988 160.131 243H254.013C267.299 243 278.494 233.466 281.086 220.91H320.304C332.439 220.91 342.394 210.944 342.394 198.809V165.674C342.394 156.747 336.818 148.704 328.458 145.569L296.251 128.204L254.013 77.3257C248.801 70.3768 240.642 66.2805 231.955 66.2805H111.82V11.0447H129.757V27.6336C129.762 31.7343 134.081 34.3948 137.749 32.563L146.346 28.2918L154.91 32.563C158.579 34.3957 162.896 31.7352 162.903 27.6336V11.0447H180.84V49.6916C180.829 52.7586 183.317 55.2477 186.384 55.2357C189.435 55.2246 191.897 52.7428 191.885 49.6916V11.0447C191.885 5.02124 186.863 0 180.84 0H111.82ZM140.802 11.0447H151.858V18.6708L148.794 17.159C147.241 16.3842 145.418 16.3842 143.865 17.159L140.802 18.6708V11.0447ZM127.028 49.6916C123.961 49.6805 121.472 52.1688 121.484 55.2357C121.495 58.2856 123.978 60.7484 127.028 60.7363H132.529C135.579 60.7474 138.061 58.2856 138.073 55.2357C138.084 52.1688 135.596 49.6795 132.529 49.6916H127.028ZM55.2357 77.3257H171.176V187.764H147.576C144.524 187.775 142.063 190.258 142.075 193.308C142.086 196.343 144.54 198.799 147.576 198.809H171.176V209.865H143.024C140.457 197.295 129.285 187.764 115.983 187.764C102.681 187.764 91.4737 197.295 88.8991 209.865H77.2933V198.809H82.8373C85.8705 198.799 88.3264 196.342 88.3382 193.308C88.3493 190.258 85.8873 187.776 82.8373 187.764H71.7924H55.2357V143.573H60.7366C63.7866 143.584 66.2687 141.123 66.2806 138.073C66.2917 135.006 63.8035 132.516 60.7366 132.529H55.2357V99.4263H66.2806C69.3348 99.4206 71.8043 96.9363 71.7924 93.8821C71.7813 90.8448 69.318 88.3868 66.2806 88.381H55.2357V77.3257ZM182.22 77.3257H231.955C237.175 77.3257 242.08 79.762 245.211 83.9376L288.42 136.077C288.872 136.626 289.424 137.074 290.049 137.414L298.204 141.783V160.163C298.204 169.247 305.708 176.719 314.793 176.719H331.349V187.764H287.159C284.107 187.775 281.646 190.257 281.658 193.308C281.669 196.343 284.123 198.799 287.159 198.809H331.349C331.349 204.974 326.47 209.865 320.304 209.865H281.097C278.522 197.294 267.315 187.764 254.013 187.764C240.711 187.764 229.539 197.294 226.972 209.865H182.22V198.809H222.377C225.428 198.82 227.911 196.359 227.921 193.308C227.932 190.241 225.444 187.752 222.377 187.764H182.22L182.22 77.3257ZM204.321 88.381C198.287 88.381 193.276 93.3917 193.276 99.4263V138.073C193.276 144.108 198.287 149.118 204.321 149.118H260.819C269.548 149.118 274.786 138.363 269.426 131.472L239.666 94.8532C236.483 90.7803 231.582 88.3709 226.41 88.3709L204.321 88.381ZM115.983 88.381C91.6486 88.381 71.7924 108.195 71.7924 132.529C71.7924 156.864 91.6486 176.72 115.983 176.72C140.317 176.72 160.131 156.864 160.131 132.529C160.131 108.195 140.317 88.381 115.983 88.381ZM115.983 99.4263C134.348 99.4263 149.118 114.164 149.118 132.529C149.118 150.894 134.348 165.675 115.983 165.675C97.6178 165.675 82.8373 150.894 82.8373 132.529C82.8373 114.164 97.6178 99.4263 115.983 99.4263ZM260.539 138.073H204.321V129.336L213.738 119.887C215.901 117.73 215.901 114.225 213.738 112.067C212.707 111.047 211.316 110.475 209.865 110.471C208.4 110.461 206.992 111.037 205.95 112.067L204.321 113.695L204.321 99.4252H226.411C228.195 99.4252 229.889 100.218 230.984 101.626L260.539 138.073ZM112.823 110.471C110.587 110.621 108.66 112.099 107.947 114.225L102.446 130.814C101.262 134.392 103.93 138.08 107.699 138.073H116.587L113.491 147.371C112.54 150.262 114.108 153.379 116.997 154.338C119.876 155.294 122.987 153.748 123.965 150.876L129.476 134.276C130.648 130.714 128.005 127.046 124.256 127.028H115.368L118.464 117.73C119.416 114.839 117.848 111.722 114.958 110.763C114.272 110.527 113.547 110.425 112.823 110.471ZM231.955 113.2C230.487 113.205 229.083 113.794 228.051 114.841L222.507 120.342C220.343 122.5 220.343 126.004 222.507 128.162C224.664 130.326 228.169 130.326 230.327 128.162L235.827 122.661C237.991 120.503 237.991 116.999 235.827 114.841C234.803 113.806 233.412 113.215 231.955 113.2ZM309.249 147.705L324.576 155.924C328.658 157.453 331.349 161.315 331.349 165.675H314.793C311.677 165.675 309.249 163.279 309.249 160.163V147.705ZM198.82 160.163C195.766 160.152 193.282 162.621 193.276 165.675C193.265 168.742 195.753 171.231 198.82 171.218H204.321C207.388 171.23 209.877 168.742 209.865 165.675C209.86 162.621 207.375 160.151 204.321 160.163H198.82ZM55.2357 198.809H66.2806V209.865H60.7366C57.6212 209.865 55.2357 207.469 55.2357 204.354V198.809ZM132.529 215.366C132.529 224.581 125.198 231.955 115.767 231.955C106.538 231.73 99.3833 224.437 99.3833 215.366C99.3833 206.151 107.888 198.809 115.983 198.809C125.198 198.809 132.529 206.151 132.529 215.366ZM270.602 215.366C270.602 224.581 263.228 231.955 253.797 231.955C244.569 231.73 237.467 224.437 237.467 215.366C237.467 206.151 245.43 198.809 254.013 198.809C263.228 198.809 270.602 206.151 270.602 215.366Z" fill="#D9D9D9"/>
</svg>
