<svg width="243" height="243" viewBox="0 0 243 243" fill="none" xmlns="http://www.w3.org/2000/svg">
<path d="M53.0836 72.4014H46.5279V77.1475H53.0836V72.4014Z" fill="#D9D9D9"/>
<path d="M226.436 169.616C228.282 162.672 229.217 155.477 229.217 148.23C229.217 127.916 221.78 108.776 208.979 94.0059C207.921 92.7767 206.814 91.5759 205.676 90.4084C198.41 82.9523 189.681 76.8108 179.8 72.4539L177.887 76.7966C186.715 80.6884 194.56 86.0989 201.186 92.6391C202.278 93.7117 203.331 94.8175 204.356 95.9518C196.644 99.7108 187.318 102.63 177.048 104.571C176.697 103.156 176.326 101.766 175.942 100.408C173.564 92.0411 170.55 84.7511 166.976 78.9798C174.67 67.7505 182.092 54.6229 182.092 45.7619C182.092 27.1477 166.948 12.0029 148.334 12.0029C129.719 12.0029 114.575 27.1477 114.575 45.7619C114.575 52.0267 118.286 60.4226 123.18 68.7757C119.862 69.7439 116.639 70.9067 113.526 72.2546H59.1211V77.0007H104.219C97.9347 80.7264 92.2204 85.2399 87.199 90.3942C86.06 91.5617 84.9541 92.7625 83.891 93.9965C78.6086 100.086 74.2327 106.944 70.9152 114.343H32.9939V119.089H68.9645C67.8729 121.989 66.9427 124.97 66.1786 128.002H48.8458V132.748H65.1297C64.1757 137.784 63.6774 142.957 63.6774 148.23C63.6774 156.64 64.9446 164.765 67.2892 172.421H29.197V177.167H68.9028C70.1985 180.622 71.7173 183.968 73.4401 187.191H56.7528V191.937H76.1928C78.7652 196.052 81.6888 199.929 84.9209 203.522C85.386 204.044 85.8559 204.552 86.34 205.06C100.403 219.929 119.904 229.607 141.637 230.855C142.586 230.912 143.54 230.954 144.499 230.973C145.148 230.987 145.799 230.997 146.449 230.997C146.852 230.997 147.256 230.992 147.673 230.987C147.849 230.992 148.024 230.997 148.195 230.997C148.571 230.997 148.955 230.978 149.349 230.949L149.691 230.94L149.72 230.93C171.76 230.076 192.036 220.532 206.625 205.097C207.024 204.679 207.418 204.252 207.802 203.825C214.446 196.497 219.833 187.902 223.573 178.334L219.154 176.606C216.43 183.578 212.771 189.995 208.356 195.742C200.022 191.385 189.761 188.025 178.385 185.842C180.635 174.807 181.869 162.548 181.969 149.866H224.446C224.314 156.145 223.449 162.372 221.846 168.39L226.436 169.616ZM177.204 145.121H150.707V112.032C158.514 111.847 166.137 111.163 173.383 110.015C175.671 120.66 177.01 132.668 177.204 145.121ZM150.707 107.286V100.238C152.249 98.4246 156.478 93.37 161.357 86.8346C162.216 85.6813 163.094 84.4805 163.981 83.2465C167.327 89.1792 170.146 96.7444 172.311 105.387C165.41 106.46 158.149 107.105 150.707 107.286ZM145.961 107.333C138.419 107.314 131.024 106.811 123.967 105.876C124.318 104.462 124.684 103.071 125.068 101.714C127.104 94.4948 129.62 88.1398 132.533 83.0282C138.518 91.3719 144.133 98.0876 145.96 100.238V107.333H145.961ZM122.909 110.513C130.308 111.524 138.063 112.06 145.961 112.079V145.121H119.197C119.388 132.862 120.688 121.035 122.909 110.513ZM145.961 149.867V165.216H150.707V149.867H177.223C177.123 162.293 175.913 174.272 173.716 185.018C165.068 183.632 155.875 182.906 146.449 182.906C138.248 182.906 130.223 183.456 122.582 184.514C120.451 173.907 119.273 162.113 119.178 149.868H145.961V149.867ZM119.321 45.7619C119.321 29.7628 132.339 16.749 148.334 16.749C164.333 16.749 177.346 29.7628 177.346 45.7619C177.346 53.9537 169.601 67.0196 161.874 78.0116C160.868 79.4402 159.862 80.8403 158.875 82.1834C154.537 88.0923 150.536 93.0283 148.329 95.6861C138.809 84.3049 119.321 58.3913 119.321 45.7619ZM125.747 72.9902C126.269 73.8113 126.796 74.6324 127.328 75.444C128.058 76.5688 128.803 77.6794 129.553 78.771C125.263 85.6386 121.755 94.6846 119.207 105.164C107.588 103.247 97.0614 100.109 88.509 95.9329C89.5294 94.7985 90.5877 93.6927 91.6746 92.6248C100.944 83.4791 112.562 76.6068 125.747 72.9902ZM85.3528 99.6633C93.4259 103.754 103.246 106.939 114.081 109.056C115.424 109.322 116.781 109.568 118.158 109.796C115.922 120.518 114.631 132.53 114.451 145.121H68.4899C69.1596 128.145 75.2863 112.345 85.3528 99.6633ZM68.4477 149.867H114.433C114.528 162.336 115.719 174.367 117.888 185.231C116.426 185.478 114.983 185.743 113.559 186.028C102.586 188.212 92.6812 191.496 84.5892 195.72C74.7695 182.957 68.8036 167.092 68.4477 149.867ZM90.7396 202.791C89.6765 201.713 88.6561 200.607 87.6641 199.474C96.2925 195.121 107.009 191.851 118.889 189.868C120.194 195.477 121.774 200.727 123.611 205.501C127.057 214.448 131.224 221.22 135.851 225.529C134.005 225.278 132.183 224.96 130.379 224.58C115.031 221.354 101.324 213.603 90.7396 202.791ZM128.044 203.793C126.321 199.322 124.836 194.41 123.597 189.161C130.906 188.169 138.59 187.651 146.449 187.651C155.534 187.651 164.38 188.339 172.686 189.649C171.523 194.49 170.151 199.037 168.58 203.209C163.355 217.082 156.316 225.449 149.268 226.198H149.221L148.879 226.203L148.847 226.213C148.466 226.223 148.092 226.232 147.726 226.242C140.578 225.909 133.407 217.737 128.044 203.793ZM161.252 224.837C165.705 220.399 169.715 213.654 173.023 204.884C174.233 201.671 175.329 198.249 176.303 194.647C176.677 193.28 177.028 191.885 177.366 190.47C187.935 192.487 197.47 195.548 205.282 199.497C204.29 200.636 203.265 201.747 202.207 202.82C191.215 214.054 176.972 221.818 161.252 224.837ZM181.951 145.121C181.765 132.288 180.427 120.067 178.11 109.194C189.212 107.077 199.269 103.855 207.513 99.6827C217.645 112.44 223.739 128.278 224.409 145.121H181.951Z" fill="#D9D9D9"/>
<path d="M24.1619 114.342H14.5738V119.088H24.1619V114.342Z" fill="#D9D9D9"/>
<path d="M21.6887 172.357H13.7836V177.104H21.6887V172.357Z" fill="#D9D9D9"/>
<path d="M49.6076 187.189H41.7025V191.936H49.6076V187.189Z" fill="#D9D9D9"/>
<path d="M148.889 27.2002C138.699 27.2002 130.408 35.4869 130.408 45.6767C130.408 55.8666 138.699 64.1533 148.889 64.1533C159.074 64.1533 167.366 55.8666 167.366 45.6767C167.366 35.4869 159.074 27.2002 148.889 27.2002ZM148.889 59.4072C141.314 59.4072 135.154 53.2468 135.154 45.6767C135.154 38.1067 141.314 31.9463 148.889 31.9463C156.459 31.9463 162.62 38.1067 162.62 45.6767C162.62 53.2468 156.459 59.4072 148.889 59.4072Z" fill="#D9D9D9"/>
</svg>
