<svg width="100" height="100" viewBox="0 0 100 100" fill="none" xmlns="http://www.w3.org/2000/svg">
<g clip-path="url(#clip0_217_35)">
<path d="M49.9954 99.9907C49.2369 99.9907 48.4927 99.9734 47.7859 99.9418C34.9214 99.3728 22.7726 93.8619 13.8706 84.5574C4.96859 75.2529 0 62.8724 0 49.9953C0 37.1183 4.96859 24.7378 13.8706 15.4333C22.7726 6.1288 34.9214 0.617929 47.7859 0.0488455C48.4898 0.0172392 49.2225 0 49.9926 0C51.0269 0 52.0498 0.0316062 53.0354 0.0919454C65.7469 0.863937 77.6847 6.45768 86.4125 15.7316C95.1402 25.0055 100 37.2604 100 49.9953C100 62.7303 95.1402 74.9852 86.4125 84.2591C77.6847 93.533 65.7469 99.1267 53.0354 99.8987C52.0556 99.9591 51.0298 99.9907 49.9954 99.9907ZM49.9954 3.44795C49.2857 3.44795 48.5961 3.44796 47.941 3.49105C35.9537 4.00726 24.6287 9.13243 16.3291 17.7972C8.02945 26.4619 3.39626 37.9969 3.39626 49.9953C3.39626 61.9938 8.02945 73.5288 16.3291 82.1935C24.6287 90.8583 35.9537 95.9834 47.941 96.4996C48.599 96.5284 49.2886 96.5427 49.9983 96.5427C50.9637 96.5427 51.9148 96.514 52.8285 96.4565C64.6615 95.7354 75.7735 90.5265 83.8973 81.8925C92.0211 73.2586 96.5444 61.8503 96.5444 49.9953C96.5444 38.1404 92.0211 26.7321 83.8973 18.0981C75.7735 9.46422 64.6615 4.25529 52.8285 3.53415C51.909 3.47669 50.9522 3.44795 49.9954 3.44795Z" fill="#1E1E1E"/>
<path d="M47.8635 99.9448H47.7916C34.9271 99.3757 22.7783 93.8649 13.8763 84.5604C4.97434 75.2559 0.00575256 62.8754 0.00575256 49.9983C0.00575256 37.1213 4.97434 24.7408 13.8763 15.4363C22.7783 6.1318 34.9271 0.620921 47.7916 0.051838C48.0902 0.0359253 48.3876 0.0993739 48.6536 0.235729C49.3691 0.597764 50.1104 0.994279 50.8546 1.41665L51.0816 1.54308L51.2913 1.66376H51.3172C60.9768 7.26117 68.744 15.6167 73.6226 25.6586C77.2912 33.2471 79.1967 41.5667 79.1967 49.9955C79.1967 58.4242 77.2912 66.7438 73.6226 74.3323C68.7391 84.3716 60.9679 92.7231 51.3057 98.3157L51.2798 98.33L51.0701 98.4507L50.8344 98.5829C50.0989 98.9995 49.3576 99.396 48.6421 99.7581C48.4008 99.8806 48.1341 99.9445 47.8635 99.9448ZM47.4871 3.51416C35.5881 4.1489 24.3856 9.3228 16.1873 17.9701C7.98899 26.6174 3.41916 38.0796 3.41916 49.9955C3.41916 61.9114 7.98899 73.3735 16.1873 82.0208C24.3856 90.6681 35.5881 95.842 47.4871 96.4768C48.0301 96.1894 48.5875 95.9021 49.1478 95.5774L49.3547 95.4596L49.5903 95.3246C58.6488 90.0736 65.9357 82.2405 70.5194 72.8267C75.1728 63.2417 76.7859 52.4635 75.1426 41.9361C73.4993 31.4087 68.6781 21.6349 61.3249 13.9241C57.872 10.2884 53.9153 7.16688 49.5759 4.65486L49.3403 4.51981L49.1421 4.40775C48.5827 4.09361 48.0311 3.79574 47.4871 3.51416Z" fill="#1E1E1E"/>
<path d="M52.9319 99.9015C52.6591 99.9013 52.3903 99.8363 52.1475 99.7119C51.2568 99.255 50.3919 98.7867 49.5788 98.3183L49.257 98.1287L49.1219 98.0483C39.5435 92.3881 31.8697 84.0011 27.0809 73.9585C22.2308 63.7717 20.5862 52.3529 22.3644 41.2114C24.1425 30.0699 29.2598 19.7303 37.0397 11.5592C40.5991 7.81263 44.6603 4.5772 49.1076 1.94514L49.2455 1.86181C49.3518 1.7986 49.4581 1.73539 49.5673 1.67505C50.3833 1.20095 51.2482 0.732606 52.136 0.278626C52.41 0.138216 52.7166 0.0737275 53.0239 0.091861C65.7354 0.863853 77.6732 6.45759 86.401 15.7315C95.1287 25.0054 99.9885 37.2603 99.9885 49.9953C99.9885 62.7302 95.1287 74.9851 86.401 84.259C77.6732 93.5329 65.7354 99.1267 53.0239 99.8987L52.9319 99.9015ZM53.2968 3.56568C52.6101 3.92484 51.9406 4.28975 51.3028 4.6604L51.0154 4.82992L50.8747 4.91325C41.8933 10.2285 34.6968 18.0961 30.2013 27.5146C25.6505 37.0719 24.1074 47.7852 25.7758 58.2383C27.4442 68.6914 32.2456 78.3921 39.5452 86.058C42.8892 89.5729 46.7026 92.609 50.8775 95.0801L51.0154 95.1606L51.3028 95.333C51.9378 95.6979 52.6072 96.0657 53.2968 96.4248C65.0393 95.5878 76.0284 90.3326 84.0513 81.7176C92.0741 73.1025 96.5347 61.7675 96.5347 49.9953C96.5347 38.223 92.0741 26.888 84.0513 18.273C76.0284 9.65789 65.0393 4.40269 53.2968 3.56568Z" fill="#1E1E1E"/>
<path d="M49.9954 33.4681C42.3212 33.4904 34.7469 31.7277 27.8711 28.3192C22.591 25.7122 17.8131 22.1929 13.7574 17.9236C13.4526 17.6031 13.2827 17.1778 13.2827 16.7355C13.2827 16.2932 13.4526 15.8679 13.7574 15.5474C22.6522 6.14798 34.862 0.587879 47.7916 0.0488455C48.4956 0.0172392 49.2283 0 49.9983 0C51.0327 0 52.0556 0.0316062 53.0411 0.0919454C65.664 0.842652 77.5285 6.36713 86.2277 15.5445C86.5325 15.865 86.7025 16.2904 86.7025 16.7326C86.7025 17.1749 86.5325 17.6003 86.2277 17.9207C82.3658 21.9875 77.8472 25.3755 72.8611 27.9428C65.7945 31.5968 57.9508 33.4922 49.9954 33.4681ZM17.4295 16.7341C20.9444 20.1828 24.986 23.0498 29.4025 25.2275C35.9269 28.4382 43.1116 30.0789 50.3829 30.0185C57.6542 29.9582 64.8107 28.1984 71.2808 24.8799C75.4271 22.7453 79.2289 19.9994 82.5585 16.7341C74.5692 8.88602 64.008 4.19691 52.8285 3.53415C51.9091 3.47669 50.958 3.44795 49.9954 3.44795C49.2857 3.44795 48.5961 3.44796 47.941 3.49105C36.4808 3.97181 25.6075 8.69121 17.4295 16.7341Z" fill="#1E1E1E"/>
<path d="M49.9954 99.9907C49.2369 99.9907 48.4927 99.9735 47.7859 99.9419C34.8592 99.4006 22.653 93.8407 13.7603 84.4433C13.4555 84.1228 13.2855 83.6975 13.2855 83.2552C13.2855 82.8129 13.4555 82.3876 13.7603 82.0671C18.4274 77.1505 24.0475 73.2366 30.2774 70.564C36.5073 67.8914 43.2165 66.5163 49.9954 66.5226C57.9508 66.4986 65.7945 68.394 72.8611 72.0479C77.8472 74.6153 82.3658 78.0032 86.2277 82.07C86.5325 82.3904 86.7025 82.8158 86.7025 83.2581C86.7025 83.7004 86.5325 84.1257 86.2277 84.4462C77.5266 93.6242 65.66 99.1486 53.0354 99.8988C52.0556 99.9591 51.0298 99.9907 49.9954 99.9907ZM17.4295 83.2566C25.6066 91.2991 36.4789 96.0185 47.9382 96.4997C48.5961 96.5284 49.2857 96.5428 49.9954 96.5428C50.9609 96.5428 51.9119 96.514 52.8256 96.4566C64.006 95.794 74.5682 91.1049 82.5585 83.2566C73.8627 74.7323 62.1711 69.9575 49.994 69.9575C37.8169 69.9575 26.1253 74.7323 17.4295 83.2566Z" fill="#1E1E1E"/>
<path d="M98.2668 51.7193H1.72407C1.26684 51.7193 0.828342 51.5377 0.505034 51.2144C0.181725 50.8911 9.15527e-05 50.4526 9.15527e-05 49.9953C9.15527e-05 49.5381 0.181725 49.0996 0.505034 48.7763C0.828342 48.453 1.26684 48.2714 1.72407 48.2714H98.2668C98.724 48.2714 99.1625 48.453 99.4858 48.7763C99.8091 49.0996 99.9908 49.5381 99.9908 49.9953C99.9908 50.4526 99.8091 50.8911 99.4858 51.2144C99.1625 51.5377 98.724 51.7193 98.2668 51.7193Z" fill="#1E1E1E"/>
<path d="M49.9954 99.9907C49.5382 99.9907 49.0997 99.8091 48.7764 99.4857C48.4531 99.1624 48.2715 98.7239 48.2715 98.2667V1.72398C48.2715 1.26675 48.4531 0.828251 48.7764 0.504942C49.0997 0.181634 49.5382 0 49.9954 0C50.4527 0 50.8912 0.181634 51.2145 0.504942C51.5378 0.828251 51.7194 1.26675 51.7194 1.72398V98.2667C51.7194 98.7239 51.5378 99.1624 51.2145 99.4857C50.8912 99.8091 50.4527 99.9907 49.9954 99.9907Z" fill="#1E1E1E"/>
</g>
<defs>
<clipPath id="clip0_217_35">
<rect width="100" height="100" fill="white"/>
</clipPath>
</defs>
</svg>
