<svg width="100" height="100" viewBox="0 0 100 100" fill="none" xmlns="http://www.w3.org/2000/svg">
<g clip-path="url(#clip0_217_52)">
<path d="M12.5 56.25L9.37502 50H31.25L28.75 43.75H8.33335L5.20835 37.5H37.7084L35.2084 31.25H4.62502L1.04169 25H16.6667C16.6667 22.7898 17.5447 20.6702 19.1075 19.1074C20.6703 17.5446 22.7899 16.6666 25 16.6666H75V33.3333H87.5L100 50V70.8333H91.6667C91.6667 74.1485 90.3497 77.3279 88.0055 79.6721C85.6613 82.0163 82.4819 83.3333 79.1667 83.3333C75.8515 83.3333 72.6721 82.0163 70.3279 79.6721C67.9837 77.3279 66.6667 74.1485 66.6667 70.8333H50C50 74.1485 48.6831 77.3279 46.3389 79.6721C43.9947 82.0163 40.8152 83.3333 37.5 83.3333C34.1848 83.3333 31.0054 82.0163 28.6612 79.6721C26.317 77.3279 25 74.1485 25 70.8333H16.6667V56.25H12.5ZM79.1667 77.0833C80.8243 77.0833 82.414 76.4248 83.5861 75.2527C84.7582 74.0806 85.4167 72.4909 85.4167 70.8333C85.4167 69.1757 84.7582 67.586 83.5861 66.4139C82.414 65.2418 80.8243 64.5833 79.1667 64.5833C77.5091 64.5833 75.9194 65.2418 74.7473 66.4139C73.5752 67.586 72.9167 69.1757 72.9167 70.8333C72.9167 72.4909 73.5752 74.0806 74.7473 75.2527C75.9194 76.4248 77.5091 77.0833 79.1667 77.0833ZM85.4167 39.5833H75V50H93.5834L85.4167 39.5833ZM37.5 77.0833C39.1576 77.0833 40.7473 76.4248 41.9194 75.2527C43.0915 74.0806 43.75 72.4909 43.75 70.8333C43.75 69.1757 43.0915 67.586 41.9194 66.4139C40.7473 65.2418 39.1576 64.5833 37.5 64.5833C35.8424 64.5833 34.2527 65.2418 33.0806 66.4139C31.9085 67.586 31.25 69.1757 31.25 70.8333C31.25 72.4909 31.9085 74.0806 33.0806 75.2527C34.2527 76.4248 35.8424 77.0833 37.5 77.0833Z" fill="#1E1E1E"/>
</g>
<defs>
<clipPath id="clip0_217_52">
<rect width="100" height="100" fill="white"/>
</clipPath>
</defs>
</svg>
