<svg width="60" height="60" viewBox="0 0 60 60" fill="none" xmlns="http://www.w3.org/2000/svg">
<circle cx="30" cy="30" r="30" fill="#D9D9D9"/>
<rect x="15" y="15" width="3" height="30" fill="#20382B"/>
<rect x="42" y="15" width="3" height="30" fill="#20382B"/>
<rect x="27.8999" y="28.5151" width="3" height="3" transform="rotate(-45 27.8999 28.5151)" fill="#20382B"/>
<path fill-rule="evenodd" clip-rule="evenodd" d="M35.7504 28.5C39.4744 29.3912 42 31.1211 42 33.1091C42 36.0086 36.6274 38.3591 30 38.3591C23.3726 38.3591 18 36.0086 18 33.1091C18 31.1211 20.5256 29.3912 24.2496 28.5C24.0872 28.7722 24 29.0606 24 29.3591C24 29.5659 24.0418 29.7678 24.1215 29.9628C21.159 30.6314 19.1999 31.7908 19.1999 33.1091C19.1999 35.1802 24.0353 36.8591 29.9999 36.8591C35.9646 36.8591 40.7999 35.1802 40.7999 33.1091C40.7999 31.7909 38.8409 30.6315 35.8785 29.9628C35.9582 29.7678 36 29.5659 36 29.3591C36 29.0606 35.9128 28.7722 35.7504 28.5Z" fill="#20382B"/>
<path fill-rule="evenodd" clip-rule="evenodd" d="M15 15V15.6212L27.9099 28.5311L30.0312 26.4098L18.6215 15H15Z" fill="#20382B"/>
<path fill-rule="evenodd" clip-rule="evenodd" d="M28.5 15V28.5H31.5V15H28.5Z" fill="#20382B"/>
<path fill-rule="evenodd" clip-rule="evenodd" d="M41.4098 15L30 26.4098L32.1213 28.5311L45.0001 15.6524V15H41.4098Z" fill="#20382B"/>
</svg>
