<svg width="57" height="27" viewBox="0 0 57 27" fill="none" xmlns="http://www.w3.org/2000/svg">
<path d="M26.44 0.799998V26H19.6L6.1 5.48H5.74V26H0.52V0.799998H7.36L20.86 21.32H21.22V0.799998H26.44ZM44.4527 0.079999C46.6367 0.079999 48.7007 0.451999 50.6447 1.196C52.5887 1.94 54.2447 2.948 55.6127 4.22L53.8127 6.38C52.4447 5.108 51.0047 4.196 49.4927 3.644C48.0047 3.068 46.4447 2.78 44.8127 2.78C43.5887 2.78 42.4607 2.996 41.4287 3.428C40.3967 3.836 39.4967 4.472 38.7287 5.336C37.9847 6.2 37.3967 7.304 36.9647 8.648C36.5567 9.968 36.3527 11.552 36.3527 13.4C36.3527 15.296 36.5687 16.928 37.0007 18.296C37.4327 19.64 38.0327 20.756 38.8007 21.644C39.5687 22.508 40.4927 23.156 41.5727 23.588C42.6767 23.996 43.8767 24.2 45.1727 24.2C46.2527 24.2 47.1767 24.104 47.9447 23.912C48.7367 23.72 49.3967 23.492 49.9247 23.228C50.5487 22.94 51.0647 22.604 51.4727 22.22V15.38H46.7927V13.04H56.6927V22.94C55.8047 23.66 54.7727 24.296 53.5967 24.848C52.5887 25.328 51.3407 25.76 49.8527 26.144C48.3887 26.528 46.7087 26.72 44.8127 26.72C42.6527 26.72 40.7087 26.432 38.9807 25.856C37.2527 25.28 35.7767 24.428 34.5527 23.3C33.3287 22.172 32.3927 20.78 31.7447 19.124C31.0967 17.468 30.7727 15.56 30.7727 13.4C30.7727 11.24 31.0967 9.332 31.7447 7.676C32.3927 6.02 33.3047 4.628 34.4807 3.5C35.6807 2.372 37.1207 1.52 38.8007 0.943999C40.5047 0.367999 42.3887 0.079999 44.4527 0.079999Z" fill="#D9D9D9"/>
</svg>
