<svg width="270" height="243" viewBox="0 0 270 243" fill="none" xmlns="http://www.w3.org/2000/svg">
<path d="M209.231 0L231.234 14.532H165.226L187.229 0H209.231ZM111.12 21.7253V87.5984H120.806C122.802 75.7547 130.467 66.839 139.903 66.839C149.339 66.839 157.118 75.7547 159.138 87.5984H182.247L163.428 22.1411H231.234L212.137 87.5984H234.832V190.691H105.723C106.208 193.318 106.552 195.949 106.552 198.718C106.552 223.162 86.7134 243 62.2705 243C37.8274 243 17.9889 223.162 17.9889 198.718C17.9889 195.948 18.3326 193.318 18.8197 190.691H0V87.5984H9.96335V21.7253H111.12ZM94.791 37.9173H26.1545V87.5951H35.1492V47.0488H85.7964V87.5951H94.791V37.9173ZM243.826 88.9784C258.494 95.5391 269.15 115.762 269.15 139.629C269.15 163.488 258.493 183.576 243.826 190.138V88.9784ZM208.816 104.894H205.91H156.232H151.804V109.322V180.728H160.66V113.75H203.004L219.61 151.114V180.728H228.466V150.006V149.038L228.052 148.204L209.924 107.521L208.816 104.894ZM256.972 198.304V208.404L269.98 238.986H239.813V210.064H215.735C218.841 213.171 220.855 217.504 220.855 222.242C220.855 231.721 213.174 239.403 203.696 239.403C194.218 239.403 186.537 231.721 186.537 222.242C186.537 217.504 188.413 213.171 191.519 210.064H163.012C166.118 213.171 167.994 217.504 167.994 222.242C167.994 231.721 160.313 239.403 150.835 239.403C141.357 239.403 133.676 231.721 133.676 222.242C133.676 217.504 135.552 213.171 138.657 210.064H115.548V198.304H256.972Z" fill="#D9D9D9"/>
</svg>
