<svg width="100" height="100" viewBox="0 0 100 100" fill="none" xmlns="http://www.w3.org/2000/svg">
<path d="M77.0763 48.2654C76.0962 47.6148 74.7987 46.781 73.2465 45.8434C72.505 45.4036 71.5243 45.6326 71.0625 46.3855C70.6139 47.1369 70.8555 48.1173 71.6066 48.5678C73.117 49.4764 74.3703 50.2858 75.3266 50.9165C77.4158 52.297 79.453 54.1922 79.787 54.5649C79.7232 54.6091 79.3904 54.739 78.7736 54.7496L52.3201 54.823C52.3355 52.5552 52.3445 50.2767 52.3445 47.9921C52.3474 45.257 52.3386 42.5295 52.3224 39.8188C54.5142 40.2418 56.6856 40.8237 58.7909 41.5567C61.7391 42.5814 64.606 43.9192 67.3061 45.5334C68.05 45.9839 69.0301 45.7395 69.487 44.9866C69.9392 44.2322 69.694 43.2564 68.9406 42.8074C66.0521 41.0787 62.9881 39.6478 59.8336 38.5497C56.9546 37.551 53.9677 36.8165 50.9528 36.366C50.4779 36.282 50.0246 36.4301 49.6749 36.7371C49.3236 37.0425 49.1255 37.4854 49.1278 37.9481C49.1572 41.2772 49.1678 44.6217 49.1649 47.9921C49.1649 50.8127 49.15 53.615 49.1278 56.402C49.1255 56.8281 49.2931 57.2359 49.5915 57.5367C49.8891 57.836 50.2966 58.0055 50.7178 58.0055H50.7207L78.8106 57.9292C79.7125 57.9124 80.9712 57.7306 81.8487 56.9839C81.9901 56.8663 82.4555 56.4157 82.6416 55.7484C82.7131 55.5422 82.8647 54.9879 82.709 54.2411C82.2073 51.816 78.2724 49.0534 77.0763 48.2654Z" fill="#1E1E1E"/>
<path d="M94.6646 64.9499C94.6641 64.9499 94.6636 64.9512 94.6636 64.9512L94.6621 64.9525C94.6621 64.9525 94.6621 64.9499 94.6646 64.9499Z" fill="#1E1E1E"/>
<path d="M43.9038 54.7269C43.9038 54.9712 43.7003 55.1743 43.4565 55.1743H29.8449C29.5986 55.1743 29.3969 54.9712 29.3969 54.7269V39.625C29.3969 39.3791 29.5986 39.1775 29.8449 39.1775H43.4565C43.7003 39.1775 43.9038 39.3791 43.9038 39.625V54.7269ZM43.4565 35.998H29.8449C27.844 35.998 26.2179 37.626 26.2179 39.625V54.7269C26.2179 56.7259 27.844 58.3523 29.8449 58.3523H43.4565C45.4555 58.3523 47.0823 56.7259 47.0823 54.7269V39.625C47.0823 37.626 45.4555 35.998 43.4565 35.998Z" fill="#1E1E1E"/>
<path d="M20.9932 54.7269C20.9932 54.9712 20.7898 55.1743 20.5458 55.1743H6.93367C6.68791 55.1743 6.48627 54.9712 6.48627 54.7269V39.625C6.48627 39.3791 6.68791 39.1775 6.93367 39.1775H20.5458C20.7898 39.1775 20.9932 39.3791 20.9932 39.625V54.7269ZM20.5458 35.998H6.93367C4.93464 35.998 3.30664 37.626 3.30664 39.625V54.7269C3.30664 56.7259 4.93464 58.3523 6.93367 58.3523H20.5458C22.5448 58.3523 24.1728 56.7259 24.1728 54.7269V39.625C24.1728 37.626 22.5448 35.998 20.5458 35.998Z" fill="#1E1E1E"/>
<path d="M94.665 64.9495C94.6621 64.9495 94.6621 64.9525 94.6621 64.9525L94.6638 64.9509C94.6638 64.9509 94.6644 64.9495 94.665 64.9495ZM12.1941 68.7841C12.1756 68.9231 12.1518 69.0605 12.1518 69.204C12.1518 70.9602 13.5751 72.3835 15.3314 72.3835C17.0865 72.3835 18.5086 70.9618 18.511 69.2087C18.5122 70.9618 19.9368 72.3835 21.6894 72.3835C23.4456 72.3835 24.8691 70.9602 24.8691 69.204C24.8691 69.0605 24.8453 68.9231 24.8266 68.7841H63.5595C63.5404 68.9231 63.5166 69.0605 63.5166 69.204C63.5166 70.9602 64.9418 72.3835 66.6962 72.3835C68.4524 72.3835 69.8759 70.9602 69.8759 69.204C69.8759 69.0605 69.8521 68.9231 69.8335 68.7841H69.9188C69.9004 68.9231 69.8759 69.0605 69.8759 69.204C69.8759 70.9602 71.2999 72.3835 73.0555 72.3835C74.8117 72.3835 76.2351 70.9602 76.2351 69.204C76.2351 69.0605 76.2112 68.9231 76.1928 68.7841H92.4733H92.5228C93.8954 68.7413 95.7859 68.4145 97.0524 67.0462C97.176 66.9011 98.2598 65.5359 97.9837 63.2879C97.8386 62.1288 95.9631 51.6572 75.2765 40.8038C66.2244 36.0529 51.7436 30.2192 34.1526 29.4221C32.1839 29.3289 28.6571 29.3457 21.6251 29.3396L19.0974 29.3427C11.4395 29.3503 4.93468 29.419 0 29.4923V32.6733C4.9287 32.6 11.4419 32.5298 19.1003 32.5222L21.628 32.5191C28.3935 32.5145 32.1064 32.5084 34.0077 32.5955C51.9119 33.4125 66.6235 39.8509 73.7975 43.6183C93.3872 53.896 94.8177 63.5888 94.8296 63.6773C94.8404 63.7583 94.8327 63.8209 94.835 63.8972H0V65.2671V66.0245V68.5947C0.384776 68.6848 0.758217 68.7505 1.09825 68.7841H12.1941Z" fill="#1E1E1E"/>
<path d="M98.4465 72.3836H0.244513C0.198578 72.3836 0.169944 72.4294 0.123413 72.434V75.5127C0.169944 75.5158 0.198578 75.5631 0.244513 75.5631H98.4465C99.3049 75.5631 99.9999 74.8515 99.9999 73.9734C99.9999 73.0968 99.3049 72.3836 98.4465 72.3836Z" fill="#1E1E1E"/>
<path d="M25.6828 16.3575H6.60689C5.72877 16.3575 5.01709 17.0691 5.01709 17.9472C5.01709 18.8268 5.72877 19.537 6.60689 19.537H25.6828C26.561 19.537 27.2726 18.8268 27.2726 17.9472C27.2726 17.0691 26.561 16.3575 25.6828 16.3575Z" fill="#1E1E1E"/>
<path d="M63.8345 22.7164H44.758C43.8805 22.7164 43.1688 23.428 43.1688 24.3061C43.1688 25.1842 43.8805 25.8959 44.758 25.8959H63.8345C64.712 25.8959 65.4243 25.1842 65.4243 24.3061C65.4243 23.428 64.712 22.7164 63.8345 22.7164Z" fill="#1E1E1E"/>
<path d="M76.5513 86.3004H57.4754C56.5978 86.3004 55.8855 87.0135 55.8855 87.8901C55.8855 88.7682 56.5978 89.4799 57.4754 89.4799H76.5513C77.4307 89.4799 78.1417 88.7682 78.1417 87.8901C78.1417 87.0135 77.4307 86.3004 76.5513 86.3004Z" fill="#1E1E1E"/>
<path d="M76.5513 29.0739H70.192C69.3138 29.0739 68.6028 29.7855 68.6028 30.6636C68.6028 31.5433 69.3138 32.2534 70.192 32.2534H76.5513C77.4306 32.2534 78.1416 31.5433 78.1416 30.6636C78.1416 29.7855 77.4306 29.0739 76.5513 29.0739Z" fill="#1E1E1E"/>
<path d="M32.0415 79.943H25.6822C24.8035 79.943 24.0924 80.6546 24.0924 81.5327C24.0924 82.4108 24.8035 83.121 25.6822 83.121H32.0415C32.919 83.121 33.6313 82.4108 33.6313 81.5327C33.6313 80.6546 32.919 79.943 32.0415 79.943Z" fill="#1E1E1E"/>
<path d="M76.5513 9.99982H63.8345C62.957 9.99982 62.2448 10.71 62.2448 11.5896C62.2448 12.4662 62.957 13.1793 63.8345 13.1793H76.5513C77.4306 13.1793 78.1417 12.4662 78.1417 11.5896C78.1417 10.71 77.4306 9.99982 76.5513 9.99982Z" fill="#1E1E1E"/>
</svg>
