<svg width="100" height="100" viewBox="0 0 100 100" fill="none" xmlns="http://www.w3.org/2000/svg">
<path d="M3.63617 81.1673C4.12479 80.3192 4.66892 79.605 5.2633 79.0238V46.0798C5.2633 45.0659 6.08592 44.2437 7.0993 44.2437H94.7735C95.4344 44.2437 96.045 44.5987 96.3709 45.1735C96.6967 45.7489 96.6885 46.4543 96.3494 47.0219L76.9922 79.4124C78.8458 80.6693 80.6429 82.2774 82.3377 83.7979C83.8254 85.1324 85.2312 86.3929 86.2025 86.9378C88.2067 88.062 89.9517 88.3167 90.9885 87.6387C91.2047 87.4968 91.3604 87.3338 91.467 87.1797C90.7252 87.1013 90.0755 86.5715 89.8809 85.8057C89.6309 84.823 90.2252 83.8235 91.2078 83.5739C93.0942 83.0944 94.3647 83.9679 94.923 84.9448C95.7633 86.4153 95.3298 88.5342 93.8933 89.9837C93.3749 90.5062 91.9403 91.6804 89.5469 91.6804C88.1585 91.6804 86.4483 91.2852 84.4063 90.1409C83.0815 89.397 81.5999 88.0692 79.8867 86.5315C78.4543 85.2483 76.7595 83.7298 75.0997 82.5797C73.951 81.7845 72.8229 81.1744 71.8065 80.9305C71.3433 80.8199 70.9017 80.7772 70.496 80.8409C70.164 80.8942 69.169 81.0643 68.0892 82.8675C68.0645 82.909 68.041 82.9398 68.0154 82.9828C67.5083 83.8619 66.3862 84.1627 65.5082 83.6567C65.1773 83.4655 64.9293 83.1874 64.7735 82.8675C64.5174 82.3383 64.5183 81.6964 64.835 81.1488C66.1507 78.8668 67.8598 77.543 69.9172 77.2146C71.1979 77.0103 72.4788 77.2151 73.7473 77.6834L91.5367 47.916H8.9353V77.212C12.7735 76.7361 16.6098 79.7938 20.0772 82.8675C20.4347 83.1847 20.7903 83.5018 21.1387 83.8148C22.3292 84.8822 23.4625 85.8949 24.3683 86.5399C24.5948 86.7013 24.811 86.8463 25.0057 86.9554C27.0098 88.0794 28.7538 88.3338 29.7907 87.6568C30.0068 87.5152 30.1615 87.3528 30.2682 87.1993C29.7947 87.149 29.3747 86.9009 29.0703 86.5399C28.897 86.335 28.7527 86.1029 28.682 85.8258C28.432 84.8432 29.0263 83.8437 30.0078 83.5937C31.8953 83.1132 33.1658 83.9865 33.7252 84.964C33.9945 85.4359 34.1197 85.9779 34.135 86.5399C34.1697 87.7286 33.6698 89.0179 32.6944 90.0015C32.1759 90.5243 30.7435 91.6983 28.3489 91.6978C26.9607 91.6978 25.2504 91.3033 23.2094 90.1583C21.8825 89.4144 20.403 88.0865 18.6877 86.5492C18.6847 86.546 18.6804 86.5428 18.6774 86.5399C17.3557 85.3549 15.8105 83.9757 14.2757 82.8675C12.4734 81.5668 10.6874 80.64 9.29804 80.859C9.21617 80.8722 9.09105 80.8928 8.9353 80.9428C8.4518 81.0975 7.65667 81.5448 6.81754 83.0014C6.48454 83.5793 5.88404 83.901 5.26317 83.9138C4.93929 83.9204 4.61142 83.8488 4.31017 83.675C3.43105 83.1683 3.12979 82.0457 3.63617 81.1673Z" fill="#1E1E1E"/>
<path d="M78.7125 57.3445C78.7125 59.7068 76.7914 61.629 74.4296 61.629C72.0669 61.629 70.1446 59.7068 70.1446 57.3445C70.1446 54.9823 72.0668 53.0607 74.4296 53.0607C76.7914 53.0605 78.7125 54.9822 78.7125 57.3445Z" fill="#1E1E1E"/>
<path d="M56.5048 57.3445C56.5048 54.9823 58.4269 53.0607 60.7896 53.0607C63.1514 53.0607 65.0725 54.9823 65.0725 57.3445C65.0725 59.7068 63.1514 61.629 60.7896 61.629C58.427 61.629 56.5048 59.7068 56.5048 57.3445Z" fill="#1E1E1E"/>
<path d="M47.0443 61.629C44.6825 61.629 42.7604 59.7068 42.7604 57.3445C42.7604 54.9823 44.6826 53.0607 47.0443 53.0607C49.4061 53.0607 51.3281 54.9823 51.3281 57.3445C51.3281 59.7068 49.4061 61.629 47.0443 61.629Z" fill="#1E1E1E"/>
<path d="M73.033 39.1738C73.033 40.1877 72.2101 41.0099 71.1969 41.0099C70.1836 41.0099 69.3608 40.1877 69.3608 39.1738V37.8469H47.6581C46.6438 37.8469 45.8221 37.0247 45.8221 36.0109C45.8221 34.997 46.6438 34.1748 47.6581 34.1748H69.3606V33.3683C69.3606 33.315 69.3659 33.2335 69.3699 33.1808C69.372 33.169 69.4643 32.005 68.708 31.1797C67.8965 30.2954 66.3924 30.1099 65.2734 30.1099H21.3169C20.3036 30.1099 19.4809 29.2877 19.4809 28.2738C19.4809 27.2599 20.3036 26.4377 21.3169 26.4377H29.7076V10.0114C29.7076 8.99754 30.5304 8.17529 31.5438 8.17529H38.6525C39.6659 8.17529 40.4886 8.99754 40.4886 10.0114V26.4378H47.5441V15.3425C47.5441 14.3287 48.367 13.5064 49.3803 13.5064H56.4891C57.5025 13.5064 58.3253 14.3287 58.3253 15.3425V26.4377H65.2731C68.013 26.4377 70.0983 27.2194 71.4721 28.762C73.1176 30.611 73.0788 32.8442 73.0326 33.4488V39.1738H73.033ZM36.8165 11.8475H33.3799V26.3024H36.8165V11.8475ZM54.6533 17.1787H51.2166V26.3024H54.6533V17.1787Z" fill="#1E1E1E"/>
<path d="M21.1634 34.1747H26.1882C27.2024 34.1747 28.0242 34.9969 28.0242 36.0108C28.0242 37.0246 27.2024 37.8468 26.1882 37.8468H21.1634C20.149 37.8468 19.3273 37.0246 19.3273 36.0108C19.3272 34.9971 20.1489 34.1747 21.1634 34.1747Z" fill="#1E1E1E"/>
<path d="M36.7982 34.1747C37.8114 34.1747 38.6342 34.9969 38.6342 36.0108C38.6342 37.0246 37.8114 37.8468 36.7982 37.8468H33.178C32.1638 37.8468 31.342 37.0246 31.342 36.0108C31.342 34.9969 32.1638 34.1747 33.178 34.1747H36.7982Z" fill="#1E1E1E"/>
<path d="M50.1675 80.714C49.8283 80.7682 48.7956 80.9332 47.6868 82.8568C47.6848 82.861 47.6806 82.8637 47.6787 82.8676C47.1706 83.7377 46.0536 84.0341 45.1786 83.5305C44.8938 83.3662 44.6765 83.1325 44.5207 82.8676C44.197 82.3168 44.1632 81.6161 44.5055 81.0228C45.821 78.7403 47.5311 77.4166 49.5886 77.0878C53.561 76.4582 57.5356 79.6882 61.1115 82.8676C61.4127 83.1366 61.714 83.405 62.0101 83.6706C63.291 84.8191 64.5092 85.9098 65.4437 86.54C65.5943 86.6417 65.7398 86.7346 65.8751 86.8105C67.8792 87.9335 69.6242 88.1906 70.6601 87.5123C70.8762 87.3707 71.031 87.2083 71.1386 87.0543C70.7287 87.0111 70.3578 86.8212 70.0647 86.54C69.827 86.311 69.6383 86.0246 69.5513 85.6808C69.3013 84.6982 69.8946 83.6987 70.8782 83.4487C72.3537 83.073 73.447 83.5295 74.1233 84.2123C74.3108 84.4025 74.4727 84.6071 74.5936 84.8191C75.4337 86.2893 75.0013 88.4085 73.5648 89.8572C73.0463 90.38 71.6118 91.5535 69.2185 91.5535C67.8311 91.5535 66.1198 91.1585 64.0788 90.0135C62.794 89.2922 61.3575 88.0173 59.7098 86.5401C59.6586 86.4935 59.6105 86.452 59.5582 86.4048C58.2917 85.2696 56.8205 83.9525 55.3491 82.8677C53.4821 81.4911 51.6142 80.4893 50.1675 80.714Z" fill="#1E1E1E"/>
<path d="M29.6268 80.9859C29.3051 81.0377 28.3573 81.2073 27.3132 82.8676C27.2579 82.9567 27.2024 83.0312 27.1472 83.1288C26.6411 84.0079 25.517 84.3087 24.639 83.8027C24.26 83.5839 23.9956 83.2473 23.8499 82.8677C23.6583 82.3687 23.6778 81.7939 23.9647 81.2949C25.2803 79.0124 26.9914 77.6887 29.0489 77.3599C32.9057 76.7477 36.7684 79.7792 40.2624 82.8678C40.6703 83.2277 41.0739 83.5881 41.4694 83.9437C42.5802 84.9391 43.6447 85.8932 44.5167 86.5401C44.8138 86.7598 45.0873 86.9443 45.3343 87.0826C47.3384 88.2073 49.0824 88.4617 50.1193 87.7839C50.3354 87.6426 50.4902 87.4799 50.5968 87.3264C50.0681 87.2708 49.5926 86.9776 49.2893 86.5401C49.1673 86.3648 49.0669 86.1722 49.0107 85.9529C48.7607 84.9703 49.3549 83.9708 50.3374 83.7208C52.2239 83.2387 53.4944 84.1129 54.0538 85.0907C54.3028 85.5272 54.4268 86.0238 54.4596 86.5402C54.5353 87.7626 54.0333 89.1101 53.0231 90.1283C52.5046 90.6511 51.0722 91.8256 48.6767 91.8251C47.2893 91.8251 45.5781 91.4301 43.5371 90.2853C42.2113 89.5417 40.7318 88.2143 39.0186 86.6774C38.9674 86.6331 38.9162 86.5859 38.8649 86.5402C37.5247 85.3383 35.9716 83.9587 34.4344 82.8678C32.6954 81.6333 30.9803 80.7728 29.6268 80.9859Z" fill="#1E1E1E"/>
<path d="M29.1207 57.3445C29.1207 54.9823 31.0429 53.0607 33.4046 53.0607C35.7664 53.0607 37.6885 54.9823 37.6885 57.3445C37.6885 59.7068 35.7664 61.629 33.4046 61.629C31.0429 61.629 29.1207 59.7068 29.1207 57.3445Z" fill="#1E1E1E"/>
</svg>
