<svg width="243" height="243" viewBox="0 0 243 243" fill="none" xmlns="http://www.w3.org/2000/svg">
<g clip-path="url(#clip0_354_1255)">
<path d="M203.997 167.098L202.347 167.249C201.725 167.303 139.385 172.89 88.7641 172.89C36.4506 172.89 25.3044 167.013 21.4713 162.593C4.91914 143.499 8.78329 110.484 8.9568 109.086L9.38165 105.667H65.8948L72.5868 113.475H183.318L188.724 105.667H243L240.724 111.092C232.433 130.881 206.141 164.375 205.025 165.789L203.997 167.098ZM192.757 113.475L187.352 121.284H69.0478L62.3558 113.475H16.352C15.8692 121.964 15.8382 144.238 27.2901 157.447C29.2802 159.742 39.2518 165.078 88.7641 165.078C134.424 165.078 189.767 160.496 199.994 159.611C204.457 153.838 222.372 130.301 231.042 113.471H192.758L192.757 113.475ZM131.067 40.4062H183.206V69.337H131.067V40.4062ZM138.802 61.5289H175.468V48.2148H138.802V61.5289ZM76.6169 40.4062H128.76V69.337H76.6208V40.4062H76.6169ZM84.3555 61.5289H121.021V48.2148H84.3555V61.5289ZM131.067 74.7811H183.206V103.712H131.067V74.7811ZM138.802 95.9033H175.468V82.5892H138.802V95.9033ZM76.6169 74.7811H128.76V103.712H76.6208V74.7811H76.6169ZM84.3555 95.9033H121.021V82.5892H84.3555V95.9033ZM54.3702 93.1525H30.9875C24.0521 93.1525 18.4072 87.4575 18.4072 80.4566V57.008C18.4072 50.0071 24.0481 44.3121 30.9875 44.3121H54.3702C61.3056 44.3121 66.9505 50.0071 66.9505 57.008V80.4526C66.9501 87.4535 61.3092 93.1525 54.3702 93.1525ZM59.2151 57.0084C59.2151 54.3156 57.0436 52.121 54.3742 52.121H30.9915C28.3217 52.121 26.1506 54.3156 26.1506 57.0084V66.6172H39.874V74.4257H26.1506V80.453C26.1506 83.1459 28.3221 85.3404 30.9915 85.3404H54.3742C57.044 85.3404 59.2151 83.1459 59.2151 80.453V57.0084ZM2.93782 182.43C41.7787 172.689 49.6682 175.05 62.5035 180.868C68.7472 183.701 75.8291 186.911 90.8546 188.948C118.039 192.641 125.191 190.296 138.18 186.042C145.409 183.674 154.411 180.726 169.201 177.975C193.913 173.377 215.302 178.894 232.8 194.361C233.186 194.701 233.492 194.983 233.727 195.176C235.014 195.81 235.899 197.143 235.899 198.689C235.899 200.845 234.168 202.594 232.031 202.594C230.366 202.594 229.419 201.759 227.7 200.241C221.873 195.091 204.151 179.424 170.603 185.66C156.315 188.318 147.584 191.177 140.567 193.472C126.96 197.927 118.749 200.624 89.8226 196.691C73.6803 194.5 65.7252 190.892 59.3306 187.993C49.0032 183.315 42.7674 180.491 4.80359 190.011C2.74405 190.516 0.630524 189.257 0.113159 187.163C-0.396667 185.072 0.862808 182.951 2.93782 182.43Z" fill="#D9D9D9"/>
</g>
<defs>
<clipPath id="clip0_354_1255">
<rect width="243" height="243" fill="white" transform="matrix(-1 0 0 1 243 0)"/>
</clipPath>
</defs>
</svg>
