<svg width="72" height="57" viewBox="0 0 72 57" fill="none" xmlns="http://www.w3.org/2000/svg">
<path fill-rule="evenodd" clip-rule="evenodd" d="M56.9168 33.9136C55.3011 33.9136 54.0087 32.6501 54.0087 31.0706C54.0087 29.4911 55.3011 28.2276 56.9168 28.2276C58.5325 28.2276 59.825 29.4911 59.825 31.0706C59.825 32.5711 58.5325 33.9136 56.9168 33.9136ZM42.5837 33.9136C40.968 33.9136 39.6756 32.6501 39.6756 31.0706C39.6756 29.4911 40.968 28.2276 42.5837 28.2276C44.1994 28.2276 45.4919 29.4911 45.4919 31.0706C45.4919 32.5711 44.1994 33.9136 42.5837 33.9136ZM63.8528 49.8712C68.3866 46.6809 71.2499 41.9349 71.2499 36.7215C71.2499 27.0734 61.7053 19.2925 49.8541 19.2925C38.003 19.2925 28.4584 27.0734 28.4584 36.7215C28.4584 46.3698 38.003 54.1507 49.8541 54.1507C52.0902 54.1507 54.1954 53.8947 56.2291 53.3828C56.6459 53.2779 57.0599 53.1392 57.4897 53.1392V53.1392C57.8875 53.1392 58.2853 53.2947 58.6034 53.4503L63.2961 56.0959C63.4552 56.1737 63.5348 56.2515 63.6939 56.2515C63.788 56.2518 63.8813 56.2339 63.9683 56.1989C64.0554 56.1638 64.1344 56.1122 64.201 56.0471C64.2675 55.982 64.3202 55.9047 64.3561 55.8196C64.3919 55.7345 64.4101 55.6433 64.4097 55.5513C64.4097 55.3955 64.3301 55.24 64.3301 55.0064C64.3301 54.9341 63.7798 53.112 63.4468 51.7932C63.3985 51.6018 63.3149 51.4122 63.3004 51.2154V51.2154C63.2916 51.0948 63.2831 50.9782 63.281 50.8573C63.2733 50.4066 63.5007 50.078 63.8528 49.8712Z" fill="#D9D9D9"/>
<path fill-rule="evenodd" clip-rule="evenodd" d="M34.0671 17.4641C32.2121 17.4641 30.7434 16.0284 30.7434 14.215C30.7434 12.4016 32.2121 10.9659 34.0671 10.9659C35.922 10.9659 37.3907 12.4016 37.3907 14.215C37.3907 15.9529 35.922 17.4641 34.0671 17.4641ZM17.0335 17.4641C15.1785 17.4641 13.7099 16.0284 13.7099 14.215C13.7099 12.4016 15.1785 10.9659 17.0335 10.9659C18.8885 10.9659 20.3571 12.4016 20.3571 14.215C20.3571 15.9529 18.8885 17.4641 17.0335 17.4641ZM25.7497 0C11.5591 0 0 9.31996 0 20.892C0 27.1831 3.42789 32.8527 8.92869 36.6584C9.32731 36.9691 9.64617 37.435 9.64617 38.0564V38.0564C9.64617 38.4218 9.52102 38.7788 9.42785 39.1321C9.15307 40.1743 8.79993 41.4463 8.57753 42.1844C8.45512 42.5906 8.2112 42.991 8.2112 43.4152V43.4152C8.2112 43.8813 8.60983 44.2696 9.08801 44.2696C9.24754 44.2696 9.40687 44.192 9.5664 44.1142L15.2265 40.9301C15.6251 40.6969 16.1035 40.5416 16.5817 40.5416C16.821 40.5416 17.0601 40.5416 17.2992 40.6194C19.9301 41.3183 22.7998 41.7842 25.6699 41.7842V41.7842C26.3734 41.7842 26.8682 41.0911 26.6973 40.4088C26.3944 39.1992 26.2279 37.949 26.2279 36.6582C26.2279 26.1735 36.7509 17.6303 49.6656 17.6303V17.6303C50.4125 17.6303 50.9787 16.9516 50.7832 16.2308C48.2557 6.91088 37.9798 0 25.7497 0Z" fill="#D9D9D9"/>
</svg>
