<svg width="72" height="72" viewBox="0 0 72 72" fill="none" xmlns="http://www.w3.org/2000/svg">
<path d="M61.5731 11.1406C54.8701 4.46094 45.9328 0.75 36.4992 0.75C16.8868 0.75 0.998254 16.5833 0.998254 36.1277C0.998254 42.3125 2.73606 48.4973 5.71516 53.6927L0.75 72L19.6177 67.052C24.831 69.7734 30.541 71.2578 36.4992 71.2578C56.1114 71.2578 72 55.4245 72 35.8802C71.7518 26.7266 68.2762 17.8203 61.5731 11.1406ZM53.6289 48.7448C52.8841 50.7239 49.4085 52.7031 47.6707 52.9505C46.1812 53.198 44.1952 53.198 42.209 52.7031C40.9677 52.2083 39.2299 51.7136 37.2439 50.7239C28.3066 47.013 22.5968 38.1067 22.1002 37.3645C21.6037 36.8698 18.3762 32.6641 18.3762 28.2109C18.3762 23.7578 20.6106 21.7786 21.3553 20.7891C22.1002 19.7995 23.0932 19.7995 23.8381 19.7995C24.3344 19.7995 25.0793 19.7995 25.5757 19.7995C26.0722 19.7995 26.8172 19.552 27.5619 21.2839C28.3066 23.0156 30.0444 27.4687 30.2926 27.7161C30.541 28.2109 30.541 28.7058 30.2926 29.2005C30.0444 29.6953 29.7961 30.1902 29.2997 30.6848C28.8032 31.1797 28.3066 31.9219 28.0584 32.1692C27.5619 32.6641 27.0653 33.1589 27.5619 33.9011C28.0584 34.8906 29.7961 37.612 32.527 40.0859C36.0026 43.0547 38.7334 44.0442 39.7265 44.5391C40.7196 45.0339 41.2161 44.7864 41.7125 44.2917C42.209 43.7969 43.9468 41.8177 44.4434 40.8281C44.9399 39.8386 45.6847 40.0859 46.4294 40.3333C47.1741 40.5808 51.6429 42.8073 52.3876 43.302C53.3807 43.7969 53.8772 44.0442 54.1254 44.2917C54.3736 45.0339 54.3738 46.7656 53.6289 48.7448Z" fill="#D9D9D9"/>
</svg>
